<svg xmlns="http://www.w3.org/2000/svg" viewBox="0 0 440 660" width="440" height="660">
  <defs>
    <linearGradient id="bg" x1="0" y1="0" x2="1" y2="1">
      <stop offset="0" stop-color="#5d2130"/><stop offset="1" stop-color="#a2455c"/>
    </linearGradient>
    <radialGradient id="glow" cx="50%" cy="38%" r="58%">
      <stop offset="0" stop-color="#f0c6a0" stop-opacity=".28"/><stop offset="1" stop-color="#f0c6a0" stop-opacity="0"/>
    </radialGradient>
  </defs>
  <rect width="440" height="660" fill="url(#bg)"/>
  <rect width="440" height="660" fill="url(#glow)"/>
  <rect x="14" y="14" width="412" height="632" fill="none" stroke="#f0c6a0" stroke-opacity=".55" stroke-width="2.5" rx="10"/>
  <rect x="26" y="26" width="388" height="608" fill="none" stroke="#f0c6a0" stroke-opacity=".28" stroke-width="1.2" rx="6"/>
  <path d="M150 300 q70 -70 140 0 l-16 26 q-54 -50 -108 0 Z" fill="#f0c6a0" opacity=".9"/>
         <rect x="212" y="238" width="16" height="70" rx="8" fill="#f0c6a0" opacity=".9"/>
         <circle cx="220" cy="216" r="26" fill="#f0c6a0" opacity=".9"/>
         <path d="M120 430 q100 -46 200 0 v70 q-100 46 -200 0 Z" fill="#2a1018" opacity=".55" stroke="#f0c6a0" stroke-width="3"/>
         <path d="M220 470 v-56" stroke="#f0c6a0" stroke-width="5" opacity=".6"/>
         <circle cx="132" cy="180" r="6" fill="#f0c6a0" opacity=".7"/><circle cx="316" cy="200" r="8" fill="#f0c6a0" opacity=".6"/>
  <text x="220" y="72" text-anchor="middle" font-family="Georgia,serif" font-size="30" letter-spacing="6" fill="#f0c6a0">XX</text>
  <text x="220" y="572" text-anchor="middle" font-family="Georgia,serif" font-size="30" letter-spacing="4" fill="#f0c6a0">审判</text>
  <text x="220" y="608" text-anchor="middle" font-family="Georgia,serif" font-size="15" letter-spacing="5" fill="#f0c6a0" fill-opacity=".8">JUDGEMENT</text>
</svg>